<?xml version="1.0" standalone="no"?>
<!DOCTYPE svg PUBLIC "-//W3C//DTD SVG 20010904//EN"
 "http://www.w3.org/TR/2001/REC-SVG-20010904/DTD/svg10.dtd">
<svg version="1.0" xmlns="http://www.w3.org/2000/svg"
 width="800.000000pt" height="800.000000pt" viewBox="0 0 800.000000 800.000000"
 preserveAspectRatio="xMidYMid meet">

<g transform="translate(0.000000,800.000000) scale(0.100000,-0.100000)"
fill="#000000" stroke="none">
<path d="M557 7705 c-173 -47 -316 -193 -362 -366 -13 -46 -15 -524 -15 -3349
0 -2238 4 -3309 11 -3340 41 -177 208 -342 385 -380 34 -7 1132 -10 3479 -8
l3430 3 64 27 c129 55 235 161 288 288 l28 65 3 3315 c2 2268 -1 3330 -8 3364
-37 176 -190 333 -371 381 -78 21 -6857 21 -6932 0z m3994 -947 c288 -161 610
-340 714 -398 l190 -106 5 -577 5 -577 90 52 c83 47 464 223 470 216 1 -2 80
-124 176 -273 l174 -270 5 -343 5 -344 250 -139 c138 -76 251 -143 253 -148 1
-4 -319 -187 -712 -405 l-714 -398 -715 398 c-394 219 -714 401 -712 405 3 3
207 118 454 255 l450 249 1 119 c0 104 -2 117 -16 112 -9 -3 -214 -116 -455
-251 -242 -135 -441 -245 -443 -245 -2 0 -177 96 -388 213 -210 118 -398 222
-415 231 l-33 17 0 -119 0 -118 410 -228 c225 -125 412 -231 414 -234 2 -4
-317 -186 -710 -405 -641 -357 -716 -396 -737 -386 -121 63 -1407 783 -1407
789 0 4 133 81 295 171 l294 164 3 294 3 293 340 190 c187 105 375 206 417
226 l78 35 2 516 3 515 715 398 c393 219 715 398 716 398 1 0 237 -131 525
-292z m-3640 -4267 c23 -24 29 -38 29 -75 0 -55 -12 -87 -41 -115 -25 -23 -28
-24 -47 -12 -11 7 -9 16 12 48 56 84 51 153 -12 153 -97 0 -249 -211 -288
-400 -40 -196 55 -326 177 -240 33 25 96 147 105 206 l6 42 -71 7 c-39 4 -71
10 -71 14 0 17 27 31 62 31 49 0 151 -38 145 -54 -34 -88 -57 -187 -57 -243
l0 -66 -25 23 c-14 13 -25 35 -25 49 l0 25 -32 -32 c-38 -36 -95 -62 -135 -62
-45 0 -105 41 -132 89 -33 59 -39 162 -16 251 66 254 310 466 416 361z m2767
6 c2 -9 -28 -84 -67 -166 -115 -246 -158 -393 -128 -435 13 -17 16 -17 44 -3
39 21 74 62 114 138 37 69 115 144 160 154 38 9 99 -18 99 -44 0 -10 -7 -35
-16 -56 -23 -55 -15 -97 19 -109 24 -9 31 -6 63 25 47 45 87 125 86 170 -1 24
5 42 17 53 22 20 36 7 26 -25 -5 -15 4 -30 39 -63 53 -49 59 -85 26 -157 -36
-80 -20 -114 40 -89 29 12 87 69 108 106 6 10 13 16 16 13 11 -11 -54 -99 -95
-129 -56 -40 -120 -42 -145 -5 -16 24 -15 29 6 88 35 96 37 136 9 158 l-23 17
-29 -59 c-55 -114 -124 -156 -187 -112 -16 11 -25 13 -27 6 -3 -7 -18 -30 -34
-53 -34 -47 -83 -80 -118 -80 -35 0 -71 37 -71 73 l0 30 -20 -26 c-47 -60
-130 -85 -165 -50 -14 13 -16 28 -12 72 l6 56 -21 -30 c-36 -50 -104 -112
-131 -119 -40 -10 -77 9 -83 43 l-6 29 -44 -33 c-24 -18 -57 -36 -74 -40 -41
-9 -80 16 -80 52 0 25 -1 25 -50 -21 -37 -35 -57 -46 -81 -46 -39 0 -69 25
-69 57 0 27 -12 30 -31 7 -49 -59 -169 -55 -169 6 0 30 -12 29 -41 -5 -37 -42
-104 -75 -153 -75 -46 0 -96 44 -96 84 0 33 -7 33 -32 1 -42 -53 -111 -70
-143 -35 -14 15 -16 29 -11 62 20 121 20 136 -2 142 -45 15 -107 -40 -177
-153 -30 -48 -43 -61 -59 -59 -15 2 -21 10 -21 29 l1 25 -43 -32 c-54 -41
-105 -58 -157 -51 -42 6 -86 43 -86 73 0 20 -14 17 -36 -7 -61 -68 -174 -64
-174 6 0 12 11 53 25 89 31 83 31 97 0 126 l-24 23 -19 -44 c-67 -154 -106
-205 -187 -245 -71 -34 -137 -30 -172 11 -80 92 63 325 200 325 41 0 57 -15
57 -55 0 -64 -71 -130 -173 -160 -37 -11 -42 -16 -45 -44 -10 -97 121 -93 208
6 43 49 114 198 106 225 -6 26 21 81 37 75 7 -2 11 -18 9 -38 -2 -29 2 -37 32
-57 19 -13 40 -37 47 -54 11 -27 9 -40 -15 -109 -15 -43 -25 -83 -21 -88 22
-37 126 26 145 87 36 113 140 212 223 212 41 0 57 -15 57 -55 0 -64 -71 -130
-173 -160 -37 -11 -42 -16 -45 -44 -10 -96 121 -93 206 4 40 44 58 80 67 128
9 44 39 67 61 45 12 -11 12 -22 1 -63 l-13 -50 66 68 c60 61 69 67 107 67 73
0 91 -55 53 -162 -22 -64 -18 -88 15 -88 30 0 81 58 112 128 48 108 108 162
181 162 33 0 45 -5 58 -25 27 -42 -2 -116 -41 -101 -13 5 -13 9 1 40 18 37 13
66 -10 66 -26 0 -86 -60 -112 -112 -54 -106 -37 -183 40 -180 75 3 144 65 182
163 29 78 59 125 91 147 21 13 23 13 30 -4 4 -12 -7 -44 -35 -95 -63 -116 -67
-189 -10 -189 39 0 80 36 120 104 74 126 159 196 237 196 60 0 107 -75 61
-100 -17 -9 -20 -8 -20 10 0 71 -58 81 -123 20 -82 -75 -135 -230 -81 -238 28
-4 73 35 135 119 54 72 56 74 77 60 11 -7 9 -18 -12 -59 -28 -56 -33 -94 -13
-110 27 -22 101 37 139 112 60 120 152 200 224 194 21 -2 39 -9 42 -17 3 -10
-1 -12 -18 -8 -55 14 -131 -50 -175 -145 -34 -75 -31 -122 7 -126 61 -7 143
114 231 339 75 192 133 295 161 286 6 -2 12 -11 14 -20z m1340 0 c2 -9 -28
-84 -67 -166 -115 -246 -158 -393 -128 -435 12 -17 16 -17 43 -3 41 21 68 53
98 117 50 108 134 180 209 180 41 0 57 -15 57 -54 0 -65 -71 -131 -173 -161
-37 -11 -42 -16 -45 -44 -4 -43 21 -71 65 -71 61 0 131 48 178 123 23 37 39
35 20 -3 -47 -91 -151 -156 -232 -147 -52 6 -93 41 -93 79 0 21 -1 21 -27 -4
-47 -42 -76 -58 -110 -58 -50 0 -66 24 -60 89 l6 56 -21 -30 c-36 -50 -104
-112 -131 -119 -63 -16 -101 34 -85 112 13 60 84 160 143 200 39 26 57 32 89
30 23 -2 41 -9 44 -17 3 -10 -1 -12 -18 -8 -55 14 -131 -50 -175 -145 -34 -75
-31 -122 7 -126 61 -7 143 114 231 339 75 192 133 295 161 286 6 -2 12 -11 14
-20z m895 -8 c15 -19 18 -35 15 -79 -4 -54 -52 -180 -69 -180 -5 0 -13 9 -20
21 -9 17 -6 35 14 93 47 134 44 151 -22 149 -69 -3 -134 -50 -172 -125 -38
-74 -19 -126 66 -178 134 -82 173 -122 182 -187 12 -90 -63 -180 -172 -204
-134 -30 -249 39 -249 151 0 57 25 99 67 114 37 13 40 6 17 -39 -68 -133 61
-242 206 -176 54 25 74 55 74 113 0 39 -5 52 -32 81 -18 18 -55 46 -83 62 -75
43 -131 90 -145 124 -27 66 18 178 94 236 76 58 192 70 229 24z m748 10 c37
-71 -60 -293 -190 -432 -43 -46 -44 -50 -45 -113 -1 -65 8 -83 41 -84 25 0 74
57 111 130 35 69 73 107 93 94 5 -2 -3 -26 -16 -52 -41 -81 -45 -162 -8 -162
21 0 80 37 87 55 3 8 -4 31 -15 50 -56 94 -1 223 84 201 52 -13 54 -93 6 -188
-24 -47 -24 -48 6 -48 43 0 70 20 92 68 45 99 133 172 206 172 41 0 57 -15 57
-55 0 -64 -71 -130 -173 -160 -37 -11 -42 -16 -45 -44 -10 -96 127 -93 204 5
16 20 48 55 70 78 52 51 104 133 104 162 0 26 27 57 41 48 6 -3 8 -18 4 -32
-3 -16 5 -62 20 -111 14 -47 25 -102 25 -123 0 -24 5 -38 13 -38 18 1 55 32
77 65 13 20 20 25 20 13 0 -25 -45 -74 -82 -89 -18 -7 -47 -28 -63 -45 -59
-62 -161 -51 -190 21 l-15 35 -45 -34 c-56 -43 -106 -60 -159 -53 -49 7 -86
44 -86 88 0 26 -2 29 -19 19 -11 -5 -39 -10 -63 -10 -36 0 -50 -6 -74 -31 -60
-63 -119 -76 -153 -33 -12 15 -21 33 -21 42 0 9 -14 2 -39 -21 -45 -40 -72
-51 -107 -43 -24 6 -54 51 -54 81 0 9 -14 1 -39 -24 -52 -52 -110 -71 -146
-47 -16 11 -25 26 -25 43 0 25 -1 25 -50 -21 -37 -35 -57 -46 -81 -46 -47 0
-69 24 -69 77 0 116 143 273 249 273 60 0 107 -75 61 -100 -17 -9 -20 -8 -20
10 0 71 -58 81 -123 20 -82 -75 -135 -230 -81 -238 28 -4 73 35 135 119 54 72
56 74 77 60 11 -7 9 -18 -12 -59 -54 -106 -14 -154 65 -80 42 39 59 72 96 180
58 174 203 428 243 428 5 0 14 -10 21 -21z m-3867 -165 c39 -15 -2 -79 -46
-72 -33 4 -32 48 2 65 30 15 25 14 44 7z m4051 -34 c32 -11 74 -20 94 -20 40
0 33 -15 -15 -29 -23 -6 -49 -3 -103 15 -45 15 -83 21 -99 17 -31 -7 -22 14
12 27 32 13 48 12 111 -10z"/>
<path d="M4285 6286 c-224 -98 -285 -129 -603 -306 -182 -101 -330 -185 -328
-187 1 -2 67 26 147 61 79 36 149 66 156 68 6 2 91 -121 188 -272 97 -151 182
-274 188 -272 17 5 680 373 694 386 9 8 -26 70 -148 261 -88 138 -168 262
-177 277 l-17 27 -100 -43z"/>
<path d="M1107 2131 c-33 -30 -93 -128 -84 -138 10 -10 82 32 124 72 78 75 40
136 -40 66z"/>
<path d="M1717 2131 c-33 -30 -93 -128 -84 -138 10 -10 82 32 124 72 78 75 40
136 -40 66z"/>
<path d="M3785 2131 c-42 -26 -60 -48 -90 -114 -29 -63 -30 -114 -3 -131 23
-14 63 15 106 79 26 38 31 54 26 80 -3 18 -1 49 4 69 12 42 3 46 -43 17z"/>
<path d="M5107 2131 c-33 -30 -93 -128 -84 -138 10 -10 82 32 124 72 78 75 40
136 -40 66z"/>
<path d="M6594 2393 c-59 -91 -153 -298 -140 -310 9 -9 96 120 136 201 40 80
61 156 44 156 -5 0 -23 -21 -40 -47z"/>
<path d="M6756 2138 c-23 -37 -25 -112 -2 -143 13 -18 15 -17 33 21 26 52 35
101 23 125 -14 25 -36 24 -54 -3z"/>
<path d="M7047 2131 c-33 -30 -93 -128 -84 -138 10 -10 82 32 124 72 78 75 40
136 -40 66z"/>
<path d="M7287 2054 c-42 -63 -40 -80 16 -114 46 -29 57 -26 57 17 0 43 -21
153 -30 153 -3 -1 -22 -26 -43 -56z"/>
<path d="M7223 1953 c-4 -9 2 -32 13 -52 15 -29 26 -37 52 -39 31 -3 62 11 62
28 0 4 -13 13 -29 20 -16 6 -39 22 -52 36 -27 28 -37 30 -46 7z"/>
</g>
</svg>
